<svg width="74" height="80" viewBox="0 0 74 80" fill="none" xmlns="http://www.w3.org/2000/svg">
<path d="M2.71423 20H71.2857" stroke="white" stroke-width="5" stroke-linecap="round" stroke-linejoin="round"/>
<path d="M11.2856 20H62.7142V71.4286C62.7142 72.9441 62.1122 74.3975 61.0405 75.4692C59.9689 76.5408 58.5155 77.1429 56.9999 77.1429H16.9999C15.4844 77.1429 14.031 76.5408 12.9593 75.4692C11.8877 74.3975 11.2856 72.9441 11.2856 71.4286V20Z" stroke="white" stroke-width="5" stroke-linecap="round" stroke-linejoin="round"/>
<path d="M22.7142 20V17.1429C22.7142 13.3541 24.2193 9.72046 26.8984 7.04137C29.5775 4.36228 33.2111 2.85718 36.9999 2.85718C40.7888 2.85718 44.4224 4.36228 47.1015 7.04137C49.7806 9.72046 51.2857 13.3541 51.2857 17.1429V20" stroke="white" stroke-width="5" stroke-linecap="round" stroke-linejoin="round"/>
<path d="M28.4285 31.4286V62.8572" stroke="white" stroke-width="5" stroke-linecap="round" stroke-linejoin="round"/>
<path d="M45.5714 31.4286V62.8572" stroke="white" stroke-width="5" stroke-linecap="round" stroke-linejoin="round"/>
</svg>
