<svg width="78" height="77" viewBox="0 0 78 77" fill="none" xmlns="http://www.w3.org/2000/svg">
<path d="M47.5713 2.32851C41.9305 1.03275 36.0693 1.03275 30.4285 2.32851" stroke="#000001" stroke-width="2" stroke-linecap="round" stroke-linejoin="round"/>
<path d="M19.5142 6.8999C17.0625 8.42091 14.7826 10.2027 12.7142 12.2142C10.7027 14.2826 8.92091 16.5625 7.3999 19.0142" stroke="#000001" stroke-width="2" stroke-linecap="round" stroke-linejoin="round"/>
<path d="M2.82851 29.9285C1.53275 35.5693 1.53275 41.4305 2.82851 47.0713" stroke="#000001" stroke-width="2" stroke-linecap="round" stroke-linejoin="round"/>
<path d="M7.3999 57.9856C8.92091 60.4373 10.7027 62.7172 12.7142 64.7856C14.7826 66.7971 17.0625 68.5789 19.5142 70.0999" stroke="#000001" stroke-width="2" stroke-linecap="round" stroke-linejoin="round"/>
<path d="M30.4285 74.6714C36.0693 75.9671 41.9305 75.9671 47.5713 74.6714" stroke="#000001" stroke-width="2" stroke-linecap="round" stroke-linejoin="round"/>
<path d="M58.4856 70.0999C60.9373 68.5789 63.2172 66.7971 65.2856 64.7856C67.2971 62.7172 69.0789 60.4373 70.5999 57.9856" stroke="#000001" stroke-width="2" stroke-linecap="round" stroke-linejoin="round"/>
<path d="M75.1714 47.0713C76.4671 41.4305 76.4671 35.5693 75.1714 29.9285" stroke="#000001" stroke-width="2" stroke-linecap="round" stroke-linejoin="round"/>
<path d="M70.5999 19.0142C69.0789 16.5625 67.2971 14.2826 65.2856 12.2142C63.2172 10.2027 60.9373 8.42091 58.4856 6.8999" stroke="#000001" stroke-width="2" stroke-linecap="round" stroke-linejoin="round"/>
<path d="M67.1428 20.0714C72.5078 20.0714 76.857 15.7222 76.857 10.3571C76.857 4.99206 72.5078 0.642822 67.1428 0.642822C61.7777 0.642822 57.4285 4.99206 57.4285 10.3571C57.4285 15.7222 61.7777 20.0714 67.1428 20.0714Z" fill="#FF5A5F" stroke="white" stroke-linecap="round" stroke-linejoin="round"/>
<g clip-path="url(#clip0_716_4109)">
<path d="M65.5715 13.7429L62.3572 14.6429L63.2572 11.4286L69.1429 5.57148C69.2094 5.50345 69.2889 5.44939 69.3766 5.41248C69.4643 5.37558 69.5585 5.35657 69.6536 5.35657C69.7488 5.35657 69.8429 5.37558 69.9307 5.41248C70.0184 5.44939 70.0978 5.50345 70.1643 5.57148L71.4286 6.84291C71.4956 6.90931 71.5487 6.98831 71.585 7.07535C71.6212 7.16239 71.6399 7.25576 71.6399 7.35005C71.6399 7.44434 71.6212 7.5377 71.585 7.62475C71.5487 7.71179 71.4956 7.79079 71.4286 7.85719L65.5715 13.7429Z" stroke="white" stroke-linecap="round" stroke-linejoin="round"/>
<path d="M63.5 11.5L65.5 13.5" stroke="white"/>
</g>
<defs>
<clipPath id="clip0_716_4109">
<rect width="10" height="10" fill="white" transform="translate(62 5)"/>
</clipPath>
</defs>
</svg>
